<?xml version="1.0" encoding="utf-8"?>
<!-- Generator: Adobe Illustrator 19.0.0, SVG Export Plug-In . SVG Version: 6.00 Build 0)  -->
<svg version="1.1" id="master-artboard" xmlns="http://www.w3.org/2000/svg" xmlns:xlink="http://www.w3.org/1999/xlink" x="0px"
	 y="0px" viewBox="394 -94 1400 980" style="enable-background:new 394 -94 1400 980;" xml:space="preserve">
<style type="text/css">
	.st0{fill:#262626;}
	.st1{fill:none;}
	.st2{fill:#221F1F;}
	.st3{font-family:'Papyrus-Regular';}
	.st4{font-size:60px;}
</style>
<g transform="matrix(0.9999999999999999, 0, 0, 0.9999999999999999, -454.7936995212123, -260.34509082025914)">
	<path class="st0" d="M1637.4,653.9c-24.5-14.9-50.9-5.6-68.5,4.5c-12.7,7.3-27.7,7.3-40.3,0c-17.6-10.1-44-19.4-68.5-4.5
		c-41.5,25.3-45.6,51.7-79.5,6.9c0,0,23.5,104.6,98.3,111.3c31.9,2.9,69.9-32.8,69.9-32.8s38,35.6,69.9,32.8
		c74.8-6.7,98.3-111.3,98.3-111.3C1683,705.6,1678.9,679.2,1637.4,653.9z M1477,746.2c-14.3-1.7-26.9-11.3-36.4-26.3
		c12-12.4,26-19,40.3-17.3c14.3,1.7,26.9,11.3,36.4,26.3C1505.3,741.3,1491.3,747.8,1477,746.2z M1620.5,746.2
		c-14.3,1.7-28.3-4.9-40.3-17.3c9.5-14.9,22-24.6,36.4-26.3c14.3-1.7,28.3,4.9,40.3,17.3C1647.4,734.9,1634.9,744.5,1620.5,746.2z"
		/>
	<path class="st0" d="M1566.5,560.3l-2.8-23.2h-6.5l3.7-6.3l-12.1-20.2l-12.1,20.2l3.7,6.3h-6.5l-2.8,23.2l8.9,9.8l-8.9-3.7v34.8
		l8.9,7h-6.5l7.9,24.6l5,2.8v37.6h1.1h3.8v-37.6l5-2.8l7.9-24.6h-6.5l8.9-7v-34.9l-8.9,3.7L1566.5,560.3z M1550.4,590.9
		c-0.1,4.4-0.1,8.9-0.3,13.3c-0.3,8.9-0.6,17.7-1.4,26.6c-0.7-8.9-1.1-17.7-1.4-26.6c-0.2-4.4-0.2-8.9-0.3-13.3l-0.1-13.3l0.1-13.3
		c0.1-4.4,0.1-8.9,0.3-13.3c0.3-8.9,0.6-17.7,1.4-26.6c0.7,8.9,1.1,17.7,1.4,26.6c0.2,4.4,0.2,8.9,0.3,13.3l0.1,13.3L1550.4,590.9z"
		/>
	<path class="st0" d="M1629.3,600.6c6.4-3.2,13.2-5.7,20.4-7.4c-0.2-1.8-0.5-3.6-0.7-5.4c2.2,0.8,4.4,1.6,6.6,2.5
		c6.4-3.8,13.6-7,21.5-9.3c-7-4.4-14.7-8-22.9-10.9c-2.4,1.2-4.8,2.5-7,3.8c-0.2-1.8-0.5-3.6-0.7-5.4c-9.3,0.4-18.5,1.9-27.4,4.4
		c-2.8,3.7-5.3,7.4-7.5,11.2c0.2-2.8,0.5-5.7,0.8-8.5c-12.7,5.5-24.3,13.1-34.5,22.3c-0.4,3.7-0.6,7.3-0.6,10.9
		c-1.3-1.3-2.6-2.5-3.9-3.8c-5.1,8.4-9,17.3-11.7,26.3c0.7,1.6,1.4,3.2,2.1,4.7c-6.6,11.9-11.1,25.2-13,39.4c0.3,0,0.6,0.1,0.9,0.1
		c1.1,0.1,2.1,0.3,3.2,0.4c1.9-13.7,6.2-26.5,12.5-38c1.7-0.2,3.4-0.3,5-0.4c6.1-6,12.7-10.9,19.5-14.8c-1.3-1.3-2.6-2.5-3.9-3.8
		c3.3,0.1,6.6,0.3,9.8,0.7c7.8-7.1,16.7-12.9,26.4-17.1c-2-1.8-4.1-3.6-6.2-5.3C1621.9,598.3,1625.7,599.3,1629.3,600.6z
		 M1597,603.1c-3.7,2.7-7.2,5.6-10.6,8.7c-6.7,6.2-12.8,13.2-18.2,20.9c4.4-8.3,10.1-15.9,16.7-22.5c3.3-3.3,6.8-6.4,10.5-9.3
		c3.7-2.8,7.6-5.4,11.7-7.8c4.1-2.3,8.3-4.3,12.7-6.1c4.4-1.7,8.9-3.2,13.5-4.3c9.2-2.3,18.8-3.3,28.5-2.7c-9.7,0.7-19,2.3-27.9,4.9
		c-4.4,1.3-8.8,2.9-13,4.7c-4.2,1.8-8.3,3.8-12.3,6.1C1604.5,597.9,1600.6,600.4,1597,603.1z"/>
	<path class="st0" d="M1479.5,597.4c-2.2,1.7-4.2,3.5-6.2,5.3c9.7,4.2,18.6,10,26.4,17.1c3.2-0.4,6.5-0.6,9.8-0.7
		c-1.3,1.3-2.6,2.5-3.9,3.8c6.9,3.9,13.4,8.9,19.5,14.8c1.7,0.1,3.4,0.2,5,0.4c6.3,11.4,10.7,24.2,12.5,38c1.1-0.1,2.1-0.3,3.2-0.4
		c0.3,0,0.6-0.1,0.9-0.1c-1.9-14.3-6.4-27.5-13-39.4c0.7-1.6,1.4-3.1,2.1-4.7c-2.8-9-6.7-17.9-11.7-26.3c-1.3,1.3-2.6,2.5-3.9,3.8
		c0-3.6-0.2-7.2-0.6-10.9c-10.2-9.3-21.8-16.8-34.5-22.3c0.4,2.8,0.7,5.7,0.8,8.5c-2.2-3.8-4.7-7.5-7.5-11.2
		c-8.9-2.5-18.1-3.9-27.4-4.4c-0.2,1.8-0.5,3.6-0.7,5.4c-2.3-1.3-4.6-2.6-7-3.8c-8.2,2.8-15.8,6.5-22.9,10.9
		c7.9,2.3,15.1,5.5,21.5,9.3c2.1-0.9,4.3-1.7,6.6-2.5c-0.2,1.8-0.5,3.6-0.7,5.4c7.2,1.7,14.1,4.2,20.4,7.4
		C1471.8,599.3,1475.6,598.3,1479.5,597.4z M1489,595.7c-4-2.3-8.1-4.3-12.3-6.1c-4.2-1.8-8.6-3.3-13-4.7
		c-8.9-2.6-18.2-4.3-27.9-4.9c9.7-0.6,19.3,0.5,28.5,2.7c4.6,1.1,9.1,2.6,13.5,4.3c4.4,1.8,8.6,3.8,12.7,6.1c4.1,2.3,8,4.9,11.7,7.8
		c3.7,2.9,7.2,5.9,10.5,9.3c6.6,6.6,12.3,14.2,16.7,22.5c-5.4-7.7-11.5-14.7-18.2-20.9c-3.4-3.1-6.9-6-10.6-8.7
		C1496.8,600.4,1493,597.9,1489,595.7z"/>
</g>
<rect x="946.7" y="521.4" class="st1" width="285.6" height="50.9"/>
<text transform="matrix(1 0 0 1 946.6703 570.1435)" class="st2 st3 st4">Mascara  a  </text>
<image style="overflow:visible;" width="519" height="713" xlink:href="note.png"  transform="matrix(8.858807e-002 0 0 7.791585e-002 1170.75 518.2977)">
</image>
</svg>
